<?xml version="1.0" encoding="UTF-8"?>
<svg id="Capa_1" data-name="Capa 1" xmlns="http://www.w3.org/2000/svg" viewBox="0 0 931 817">
  <defs>
    <style>
      .cls-1 {
        stroke-width: 0px;
      }
    </style>
  </defs>
  <path class="cls-1" d="m737.99,325.33c-.04,5.11-.07,10.22-.1,15.34,0,.87,0,1.74,0,2.89,6.18.31,12.21.1,18.25.13,5.98.03,11.96,0,18.26,0,.17,6.72.4,13.2-.15,19.97h-36.14c-.09.95-.21,1.64-.21,2.32-.01,10.24,0,20.47,0,30.71,0,.56,0,1.13.1,1.67.23,1.12.8,1.84,2.11,1.83,4.08-.04,8.16.01,12.23-.04.56,0,1.14-.38,1.65-.69.65-.39,1.25-.88,2.09-1.49,0-4.09,0-8.4,0-12.71q0-4.62,4.66-4.62c3.6,0,7.2,0,10.8,0,.78,0,1.56.08,2.6.14.15,1.38.39,2.62.39,3.86.03,9.68.02,19.35.02,29.03,0,.48,0,.96,0,1.44.06,3.06.61,3.64,3.69,3.62,5.03-.03,10.07-.19,15.1-.17,5.75.02,11.5.17,17.24.27.14,0,.28.13.6.28v18.05h-17.93c-.65,6.21.04,12.19-.45,18.42h-18.04c-.38,6.17-.18,12.04-.16,18.17h17.85c.66,2.11.72,16.09.09,18.53-.78.04-1.63.13-2.48.13-3.76.02-7.52,0-11.28.01-2.9.01-4.23,1.31-4.23,4.1,0,9.84,0,19.67,0,29.51,0,.79,0,1.57,0,2.68,6,.41,11.8.02,17.93.26.17,1.33.46,2.63.47,3.93.04,9.67.02,19.35.02,29.02,0,.96,0,1.91,0,2.59.84.8,1.44,1.47,2.14,2,.4.3.97.51,1.47.51,4.32.04,8.64.02,12.96.03.76,0,1.34-.1,1.74-.92.46-.97,1.3-1.04,1.79-.05.4.81.92.98,1.69.97,4.71,0,9.43,0,14.17,0,.2-.33.34-.61.53-.86.75-1.01,1.17-1.01,1.98-.13.34.37.77.93,1.17.94,4.87.06,9.73.04,14.84.04.17-1.32.46-2.49.46-3.65,0-11.11-.04-22.23-.05-33.34,0-4.96.05-9.91.07-14.87,0-.87,0-1.73,0-2.83-1.2-.14-2.2-.34-3.21-.35-4.24-.04-8.48,0-12.72-.03-1.9-.01-2.36-.29-2.38-1.91-.08-5.82-.03-11.64-.03-17.8h18.26v-36.43c1.32-.14,2.4-.36,3.49-.36,10.56-.03,21.11-.02,31.67,0,1.02,0,2.03.11,3.16.17v18.09c-5.89.68-11.73-.02-17.82.44-.9,5.91-.24,11.78-.43,17.93,6.15.29,12.11-.04,18.21.2.06.99.15,1.77.16,2.54.01,4.48,0,8.96,0,13.44,0,.4.01.8-.02,1.2-.17,2.11-.52,2.49-2.63,2.5-4.16.03-8.32,0-12.48.03-1.01,0-2.01.2-3.1.32v16.43c6,.41,11.88-.05,17.69.26.62,2.32.82,53.1.2,56.49-5.87.05-11.82.1-18.04.16.07,6.15-.22,12.02.22,18.04,6.11.37,12.02-.15,18.02.35v36.43c-1.04.07-2.04.2-3.04.2-4.16.02-8.32,0-12.48.02-1.14,0-2.4-.35-2.97,1.26-.21.59-.97.45-1.36-.1-.23-.31-.34-.7-.52-1.07h-15.86c-.15,1.31-.39,2.55-.41,3.8-.05,4.08,0,8.16-.03,12.24-.01,1.73-.25,2.12-1.85,2.14-5.91.08-11.81.03-18.07.03-.04-6.15-.03-12.1,0-18.37h18.18v-54.63c-2.31-.66-33.64-.55-36.24.16-.04.65-.12,1.35-.13,2.05-.01,3.84-.02,7.68,0,11.52.01,2.68,1.39,4.09,4.01,4.1,3.84.02,7.68,0,11.52.01.86,0,1.71.09,2.69.14v17.96c-1.74.74-3.51.32-5.22.38-1.84.07-3.68.02-5.52.02h-5.41c-.19.48-.25,1.15-.55,1.28-1.92.86-1.52,2.52-1.53,4.04-.01,3.2.21,6.42-.08,9.59-.17,1.87.89,3.16,1.25,4.75-1.93,1.1-1.08,2.96-1.13,4.5-.11,3.28-.03,6.56-.04,9.84,0,.78-.09,1.56-.14,2.55-1,.06-1.85.15-2.7.15-3.68.02-7.36,0-11.04,0-1.02,0-2.01-.14-2.68,1.06-.46.81-1.49.74-2.04.02-.88-1.15-2.05-1.09-3.25-1.09-3.44,0-6.88,0-10.32,0-1.04,0-2.04-.1-2.7,1.07-.25.44-1.07.55-1.79.87v16.16h17.9c.79,6.14.09,12.06.49,18.19,1.4.16,2.72.42,4.04.44,3.68.06,7.36.01,11.04.03,2.75.01,3.16.4,3.18,3.21.04,3.84.01,7.68.01,11.52,0,.88,0,1.75,0,2.72.4.2.86.27,1.06.54,1.34,1.84,3.28,1.55,5.15,1.54,3.04-.01,6.08,0,9.12,0,.95,0,1.86.06,2.6-.84.64-.78,1.62-.81,2.24.03.59.79,1.3.82,2.11.82,4,0,8,.03,12-.03.64,0,1.44-.26,1.88-.69.87-.85,1.57-.84,2.48-.12.47.37,1.08.78,1.63.79,4.55.06,9.1.04,13.95.04.29-1.31.8-2.52.8-3.73,0-4.87-.23-9.74-.21-14.62.02-6.15.19-12.3.31-18.45,0-.3.16-.6.24-.87,1.88-.55,15.75-.71,19.11-.24.56,2.09.77,52.63.24,56.24-1.81.52-70.2.75-74.79.2v-18.05h-18.21c-.56-6.21-.01-12.19-.35-18.08-1.95-.62-14.41-.75-18.05-.17-.36,5.88.12,11.85-.29,18.12-6.05.18-12-.04-18.15.13v18.11h-18.41c-.24-5.83.01-11.64-.15-17.66-1.08-.18-2.07-.48-3.07-.49-10.64-.03-21.27-.02-31.91,0-.38,0-.77.09-1.41.17v17.72c-1.14.17-2.06.42-2.97.42-11.28.02-22.55,0-33.83,0-.46,0-.93-.09-1.52-.15-.07-.69-.19-1.31-.19-1.93-.02-4.72-.02-9.44,0-14.16,0-2.25.16-2.43,2.48-2.46,4.08-.05,8.16-.02,12.24-.02.87,0,1.75,0,2.51,0,1.03-1.19,1.22-2.4,1.21-3.72-.03-4-.02-8,0-12,0-1.11.13-2.22.21-3.57.87-.09,1.63-.22,2.39-.23,2.4-.03,4.8-.01,7.2-.01,7.42,0,14.84,0,22.26,0,6.62,0,13.24.04,19.86-.03,1.47-.01,2.94-.39,4.47-.6v-15.64c-1.06-.23-2.12-.66-3.18-.66-5.04-.03-10.07.09-15.11.09-6.23-.01-12.47-.1-18.7-.17-.22,0-.44-.14-.87-.29-.05-.96-.16-1.98-.16-3-.02-4.08,0-8.16-.01-12.24,0-.56.04-1.13-.05-1.68-.33-2-.96-2.54-2.99-2.54-3.68-.01-7.36,0-11.04,0-.96,0-1.83-.07-2.39,1.1-.39.82-1.75.84-2.16.03-.64-1.24-1.61-1.12-2.63-1.13-3.68,0-7.36,0-11.04,0-.95,0-1.83-.08-2.43,1.04-.46.84-1.75.88-2.16.08-.63-1.26-1.61-1.12-2.63-1.12-4.24,0-8.48,0-12.72,0-.87,0-1.73,0-2.78,0-.06-.94-.15-1.63-.15-2.33-.01-4.08.01-8.16-.02-12.24,0-1.18-.15-2.36-.25-3.79-1.35,0-2.53,0-3.71,0-3.36,0-6.72,0-10.08,0-1.01,0-2.07-.21-2.58,1.15-.17.45-.98.67-1.51,1v34.1c1.28.08,2.52.23,3.76.23,9.92.02,19.83.01,29.75.01.87,0,1.75,0,2.56,0,.98,2.47,1.04,17.26.11,19.87-5.83.54-11.76-.42-17.71.61-.08.8-.19,1.41-.2,2.03-.02,4,.02,8-.03,12-.01,1.19.1,2.23,1.62,2.9-1.78,1.03-1.61,2.55-1.61,4.04.02,4.08,0,8.16,0,12.24,0,.95,0,1.9,0,3.2-37.3,0-74.35,0-111.69,0-.31-6.24.03-12.12-.22-18.31h-18.25c.03-6.77-.1-13.19.1-19.8,1.25-.07,2.11-.15,2.96-.15,4.08-.01,8.16,0,12.24-.02.93,0,1.86-.15,3.07-.26v-18.21h19.82c.05.94.14,1.8.14,2.65.02,4.48,0,8.96.02,13.44.01,2.17.18,2.36,2.31,2.38,4.08.04,8.16.06,12.23-.02,1.08-.02,2.15-.43,3.4-.7.05-.99.13-1.85.14-2.7.01-3.84-.02-7.68.02-11.52.01-1.17.21-2.34.34-3.69h36.15c.6-2.09.82-25.56.38-34-.7-.72-1.27-1.42-1.96-1.95-.39-.3-.98-.47-1.49-.48-4.72-.03-9.43-.02-14.23-.02-.4.55-.8,1.09-1.21,1.65-.33-.11-.69-.14-.74-.27-.48-1.31-1.48-1.41-2.68-1.4-4.08.05-8.16.03-12.24.01-.62,0-1.25-.1-2.09-.17-.09-.93-.23-1.77-.24-2.62-.03-2.96-.07-5.92,0-8.88.06-2.41.12-4.76-2.27-6.67-3.02,0-6.37,0-9.72,0-1.44,0-2.88.02-4.32,0-2.81-.05-3.23-.47-3.24-3.17-.02-3.52.03-7.04-.02-10.56-.02-1.43-.21-2.85-.35-4.61-5.45-.01-10.76-.07-16.32.07-.1,1.16-.25,2.17-.25,3.18-.02,10.32-.02,20.63,0,30.95,0,.69.12,1.39.21,2.37h18.12c.1,6.17.04,12.04.04,18.17-1.17.12-2.17.3-3.17.3-4,.03-8,.01-12,.02-1.1,0-2.17-.18-2.87,1.16-.41.79-1.72.72-2.15-.12-.53-1.02-1.28-1.05-2.18-1.05-3.92,0-7.84,0-11.76,0-.83,0-1.47.15-2.04.92-.81,1.07-1.62,1.05-2.41-.03-.51-.7-1.06-.88-1.81-.88-4.08,0-8.16-.03-12.24.04-.55,0-1.13.41-1.62.74-.68.46-1.29,1.03-2.28,1.83,0,1.35,0,3.09,0,4.83,0,2.96.04,5.92-.02,8.88-.02,1.08-.26,2.16-.41,3.33-6.04.43-11.87-.24-17.79.45-.42,6.05.22,11.95-.39,17.93h-17.89c-.11-1.22-.29-2.39-.3-3.56-.04-3.92,0-7.84-.02-11.76,0-.86-.08-1.71-.13-2.74h-17.93c-.07.87-.18,1.71-.19,2.55-.02,3.92.01,7.84-.02,11.76-.01,1.19-.17,2.38-.28,3.87h-17.64c-.22.52-.39.73-.39.95-.03,4.8-.08,9.6-.03,14.39.03,2.3.6,2.78,2.88,2.79,3.52.02,7.04.01,10.56,0,1.1,0,2.18.12,3.08-.9.26-.3,1.51-.22,1.87.13.82.8,1.72.76,2.66.76,4.08.01,8.16,0,12.24.01.64,0,1.28.02,1.92.03,1.09.03,1.59.59,1.54,1.68-.02.4,0,.8,0,1.2,0,4.24,0,8.48,0,12.72,0,.94-.08,1.88-.13,2.97h-36.64c-.33-2.91-.12-5.85-.15-8.76-.04-2.94,0-5.88,0-9.05-6.09-.77-11.96-.21-18.07-.4v18.25c-6.74.11-13.22.36-20.01-.17v-17.99c-6.25-.05-12.2-.09-18.38-.14v-18.27c-3.12-.34-6.06-.13-8.98-.17-2.95-.04-5.91,0-9.16,0-.09-1.04-.23-1.96-.23-2.88-.01-17.27-.01-34.55,0-51.82,0-.54.08-1.08.14-1.86h17.66c.65-1.95.78-33.12.17-36.6-5.88-.04-11.82-.08-18.01-.12v-18.33h-36.65v-18.4c1-.05,1.85-.12,2.71-.13,4.32-.01,8.64,0,12.96,0,1.09,0,2.17.21,2.82-1.18.35-.75,1.31-.59,1.68.25.37.82.96.94,1.73.94,4.72-.01,9.43,0,14.16,0,.21-.33.36-.62.55-.86.78-1.01,1.38-1.12,1.91-.07.55,1.12,1.37.92,2.2.92,3.84.02,7.68,0,11.52.01.56,0,1.12-.02,1.68.01,2.08.14,2.51.55,2.53,2.62.04,3.2.01,6.4.01,9.6,0,6.47-.02,12.93.02,19.4,0,1.59.21,3.17.34,4.99.99.06,1.84.15,2.69.15,3.84.02,7.68-.02,11.52.02,1.25.01,2.51.22,3.98.36v17.96c3.24.02,6.25.05,9.26.06,3.04.01,6.08.01,9.12.01,2.96,0,5.92.08,8.88-.04,2.99-.11,6.06.58,9.26-.74,0-1.09,0-2.2,0-3.3,0-3.12,0-6.24,0-9.36,0-3.93-.86-4.81-4.68-4.81-3.6,0-7.2,0-10.8,0-.86,0-1.72-.08-2.9-.13,0-1.06,0-1.92,0-2.77,0-4.16,0-8.32,0-12.48,0-2.41-.46-2.93-2.93-2.99-3.28-.07-6.56,0-9.84-.03-2.21-.02-4.43-.12-6.81-.19v-17.95c1.15-.13,2.24-.35,3.32-.36,4.08-.04,8.16-.01,12.24-.02,1.01,0,2.01.19,2.54-1.19.27-.7,1.18-.71,1.7.11.21.33.38.67.56,1.01h14.84c.97-.91,1.72-1.62,2.65-2.5v-15.21c-1.17-.13-2.26-.37-3.35-.37-17.19,0-34.38.02-51.58.02-18.23,0-36.47-.03-54.7-.04-.48,0-.95-.06-1.75-.11-.43-5.94,0-11.91-.25-18.02h-18.1c-.15,12.06.03,24.1-.1,36.37h-17.88c-.7,2.16-.29,4.16-.37,6.11-.07,2-.02,4-.02,6v6.16c-.95.07-1.72.17-2.48.17-10.72.01-21.43,0-32.15,0-.32,0-.64.01-.96,0-2.26-.17-2.6-.51-2.61-2.76-.02-4.24-.02-8.48,0-12.72,0-2.39.55-2.99,2.94-3.02,4.24-.06,8.48-.02,12.72-.02.48,0,.95-.04,1.14-.05.85-.78,1.62-1.32,2.14-2.03.38-.52.6-1.27.61-1.93.06-3.52.03-7.04.03-10.56,0-.56-.01-1.12,0-1.68.1-2.8.62-3.3,3.46-3.31,3.04-.02,6.08.06,9.12-.03,1.89-.05,3.77-.33,5.77-.52v-16.06c-5.86-.7-11.76-.05-17.92-.42-.15-1.35-.4-2.66-.42-3.98-.06-3.76,0-7.52-.03-11.28,0-1.07.25-2.23-1.06-2.95-.26-.14-.25-1.56.07-1.8.93-.7,1-1.57,1-2.54,0-3.84.03-7.68-.01-11.52-.02-2.03-1.98-3.96-4-3.97-3.92-.02-7.84.01-11.76-.03-.86,0-1.74-.16-2.57-.37-.75-.19-1.22-.7-1.22-1.56,0-5.26,0-10.53,0-15.97,1.06-.27,1.97-.68,2.87-.69,5.04-.05,10.08-.01,15.11.02.54,0,1.09.15,1.85.26v17.67c2.81.72,15.79.52,18.25-.29v-17.63c6.18-.05,12.12-.1,18.33-.15v-18.26h54.97v-54.89h-36.58v-18.43h-36.11c-.81-2.53-.86-16.93-.07-19.88,11.85-.32,23.81.05,35.93-.2v-16.08c-1.98-2.16-4.43-1.81-6.81-1.82-2.16,0-4.32,0-6.48,0-1.11,0-2.12.09-3.17.76-1.12.72-2.53.71-3.87.04-.81-.41-1.76-.74-2.65-.76-3.52-.09-7.04-.01-10.56-.05-.92-.01-1.84-.22-2.88-.35v-15.59c-1-.92-1.83-1.68-2.93-2.7-4.3,0-9.01,0-13.73,0-.77,0-1.3.14-1.69.97-.46.99-1.26.96-1.75-.04-.33-.68-.75-.94-1.48-.93-4.79.02-9.58,0-14.63,0-.14,1.38-.36,2.62-.38,3.86-.05,4.08,0,8.16-.02,12.24,0,2.19-.23,2.47-2.48,2.51-4.16.07-8.32.03-12.48.04-2.9,0-3.54.57-3.54,3.49,0,4.87.19,9.75.17,14.62-.03,6.31-.19,12.62-.31,18.92,0,.14-.13.28-.37.75-6.24.41-12.67.13-19.42.17-.12-12.88-.05-25.46-.04-38.36h18.43v-18.16c6.25-.48,12.22.03,18.49-.33-.13-6.05.37-11.91-.39-18.05-12.2-.09-24.22.06-36.39-.09v-18.26h17.95c.83-6.14.06-12.05.53-18.08,1.13-.15,2.14-.37,3.15-.39,5.27-.11,10.55-.21,15.82-.22,4.87,0,9.75.14,14.62.19,2.6.02,4.24-1.53,4.27-4.15.06-3.92.02-7.84.01-11.76,0-.88-.06-1.67-.95-2.29-.76-.53-.77-1.49.04-2.02.94-.6.9-1.44.9-2.3.01-3.84.03-7.68,0-11.52-.02-1.84-.37-2.21-2.16-2.52-.47-.08-.96-.06-1.44-.06-4.08,0-8.16,0-12.24,0-.62,0-1.24.11-2.16.19v17.62c-2.72.77-35.8.79-38.36.08-.05-.5-.15-1.04-.15-1.59-.01-4.72-.02-9.44,0-14.15,0-2.16.17-2.37,2.3-2.4,4.32-.06,8.64-.02,12.96-.03,1.09,0,2.15.16,2.92-1.09.5-.81,1.7-.78,2.23.08.65,1.06,1.51,1.01,2.47,1.01,3.6,0,7.2.01,10.8,0,2.18,0,3.18-.77,3.22-2.88.08-4.88-.01-9.75-.02-14.63,0-1.59.06-3.17.07-4.76.01-4.4,0-8.8,0-13.2,0-2.39.16-2.58,2.59-2.61,5.28-.05,10.56-.06,15.83-.06,12,0,23.99.03,35.98.05.55,0,1.09.07,1.86.11.08,1.32.22,2.57.23,3.83.02,9.84.01,19.67.01,29.51,0,.88,0,1.76,0,2.56,2.13,1.78,4.47,2.31,7.11,2.1,1.99-.16,4-.03,6-.03,1.27,0,2.42-.08,3.64-.81,1.16-.7,2.68-.96,4,.27.45.42,1.31.51,1.99.52,3.76.05,7.52.04,11.28.02,1.88-.01,2.45-.35,2.49-2.13.11-5.18.04-10.37.04-15.9-3.09-.02-6.02-.05-8.95-.05-2.95,0-5.89,0-9.14,0-.38-6.71-.3-13.21-.05-19.86h18.03c.83,5.89.03,11.74.52,17.84,5.95.69,11.88.18,18.04.36v-73.2c3.18-.5,6.2-.21,9.19-.26,2.94-.05,5.89-.01,9.13-.01v-18.16c6.79-.31,13.29-.25,19.93-.03v17.96c-5.9.92-11.83,0-17.95.58-.15,1.45-.43,2.85-.42,4.25.03,4.79.24,9.58.24,14.38,0,4.79-.19,9.58-.25,14.38-.01,1.02.14,2.03.23,3.22h16.62v-17.75c1.41-.16,2.57-.39,3.73-.41,4-.05,8-.02,12-.02.56,0,1.13.04,1.68-.03,2.01-.25,2.4-.69,2.41-2.78.02-4.32,0-8.64.01-12.96,0-.78.08-1.55.14-2.47h18.33v18.14c6.17.23,12.12-.02,18.4.16.11,6.2.04,12.24.04,18.28,0,5.99,0,11.98,0,17.91,1.95.59,14.02.71,18.16.2.27-2.27.09-4.64.12-7,.03-2.4,0-4.8,0-7.2s0-4.96,0-7.44c0-2.4,0-4.8,0-7.2s0-4.79,0-7.49c6.16-.27,12.17-.09,18.39-.14v17.7c2.22.77,15.2.96,18.11.32v-36.17c-6.02-.2-11.9.02-17.71-.12-.52-1.88-.66-33.46-.16-36.75,5.99-.03,12.03-.06,18.07-.08.04.8.12,1.59.12,2.39.01,4-.02,7.99.03,11.99,0,.66.18,1.4.51,1.95.41.68,1.08,1.21,1.92,2.11h15.8c.13,1.12.33,2.05.34,2.98.04,3.52-.04,7.03.05,10.55.03.97.47,1.94.76,2.9.44,1.45.91,2.84-.18,4.28-.39.52-.58,1.31-.59,1.98-.05,3.83-.06,7.67,0,11.51.01.73.32,1.55.74,2.15.65.92.67,1.63,0,2.55-.43.59-.73,1.41-.74,2.14-.07,3.75-.08,7.51,0,11.27.02.79.4,1.66.83,2.35.58.93.63,1.62-.06,2.55-.47.63-.76,1.55-.77,2.35-.08,3.59-.06,7.19-.03,10.79.02,2.47.63,3.06,3.18,3.07,4.32.03,8.63.01,12.95,0,.53,0,1.06-.16,1.83-.28v-36.13c1.42-.11,2.59-.28,3.77-.29,4-.03,7.99,0,11.99-.02.77,0,1.55-.08,2.51-.14.09-1.11.23-2.04.22-2.97-.03-5.03-.12-10.06-.13-15.09,0-5.03.11-10.07.11-15.1,0-1.07-.26-2.15-.4-3.23-6.14-.35-12.03.25-18.19-.39v-17.91c-.69-.06-1.08-.11-1.47-.11-10.71,0-21.42,0-32.12,0-1.02,0-2.05-.05-3.07-.08v-18.18c6.02-.41,11.83-.03,17.73-.24.18-.31.33-.68.57-.97.64-.79,1.53-.92,1.87-.1.51,1.24,1.38,1.13,2.33,1.13,4.08,0,8.16-.02,12.23.01,1.09,0,2.19.16,3.45.26.06.98.14,1.76.15,2.53.01,3.84-.02,7.68.02,11.51.02,1.26.22,2.51.36,3.87h16c.19-1.37.52-2.75.55-4.14.08-3.76.01-7.52.04-11.27.01-2.45.27-2.74,2.77-2.77,3.92-.04,7.84-.01,11.75-.01.87,0,1.75,0,2.66,0,.32-.64.46-1.5.89-1.68,1.68-.72,1.46-2.09,1.46-3.44,0-3.6-.02-7.2.02-10.8,0-.79.13-1.58.31-2.35.24-1.07.91-1.64,2.07-1.53.55.05,1.12,0,1.68,0,9.51,0,19.02.01,28.54-.02,1.34,0,2.68-.2,4.17-.33.07-.87.17-1.56.17-2.25.02-4-.01-8,.02-11.99,0-1.17.17-2.35.27-3.68h36.14c.12,1.21.32,2.37.33,3.53.04,4,.05,8,0,11.99-.02,1.32-.02,2.55,1.66,3.3-1.59.95-1.68,2.23-1.67,3.64.06,4.24.02,8.48.02,12.71,0,.87,0,1.75,0,2.96-12.23.16-24.26-.02-36.64.1.08,6.05-.31,11.98.29,18.15,1.28,0,2.3,0,3.33,0,10.23,0,20.47,0,30.7,0,1.18,0,2.48.33,2.88-.73,1.35.29,2.36.68,3.38.7,3.92.08,7.84.03,11.75.03.79,0,1.57,0,2.59,0,.1,1.06.23,1.91.24,2.75.03,3.6.01,7.2,0,10.8,0,1.26-.15,2.54,1.25,3.33.32.18.37.83.58,1.35h15.78c.62-2.49.75-33.77.12-36.36h-17.58c-.73-2.42-.6-35.8.12-38.22.58-.05,1.2-.14,1.83-.15,4.8-.01,9.6,0,14.39,0,.32,0,.64,0,.96.03,1.8.16,2.03.36,2.05,2.2.03,4,.01,8,.01,11.99,0,.48,0,.96,0,1.44.08,2.48.29,2.73,2.81,2.71,4.95-.04,9.91-.18,14.86-.18,4.95,0,9.91.15,14.86.18,6.63.03,13.26,0,19.89.01,2.3,0,2.84.46,2.85,2.79.03,11.51,0,23.03,0,34.54,0,.15-.06.31-.18.82-3.94.14-7.99.05-12.02.06-4,.02-8,0-11.99,0h-12.31v36.5c12.13.2,24.16-.03,36.49.14v55.02h54.76c.83,6.13.02,12.05.51,17.86,2.33.56,32.19.79,36.36.27v-17.97h56.68c.21,6.55.23,13.05-.04,19.87h-2.76c-9.91,0-19.83,0-29.74,0-6.63,0-13.27-.03-19.9.03-1.23.01-2.46.38-3.95.62-.02,5.95-.04,11.66-.07,17.56-1.2.06-2.05.14-2.91.14-3.84.01-7.68-.03-11.51.03-1.24.02-2.48.29-3.91.47v6.68c0,2.16.04,4.32-.01,6.48-.03,1.37-.04,2.69,1.61,3.56-2.01,1.37-1.58,3.26-1.59,5.04-.02,3.52-.06,7.04.03,10.55.02.95.45,1.89.7,2.87-.22,1.06-.67,2.24-.69,3.43-.09,4.08-.05,8.16-.03,12.23,0,.95.1,1.9.16,3.03.89.22,1.72.6,2.54.61,4.8.05,9.6.02,14.39,0,.22,0,.44-.12.95-.26v-17.73c.94-.13,1.62-.3,2.3-.31,5.75-.1,11.51-.22,17.26-.24,4.71-.01,9.43.13,14.14.18.86,0,1.72-.08,2.77-.14.99-6,.37-11.87.49-17.92-1.09-.06-1.86-.15-2.64-.15-4-.01-8,.01-11.99-.02-1.18,0-2.36-.17-3.61-.26-.09-.55-.21-.93-.21-1.31-.01-4.96-.03-9.92,0-14.87,0-1.93.2-2.15,2.26-2.18,4.4-.06,8.8-.02,13.19-.04,1.02,0,1.98.1,2.68-1.07.51-.86,1.65-.76,2.21.09.66,1.01,1.54.98,2.5.98,4,0,8-.01,11.99,0,1.02,0,2.04.11,3,.17.64,1.93.86,50.78.26,55.05-5.97.31-12.02.1-18.06.14-5.98.04-11.97,0-18.24,0-.44,6.06-.16,11.94-.18,18.14,12.25.23,24.35-.06,36.38.16.66,3.11.46,54.08-.2,56.31-.33.05-.71.16-1.09.17-5.91.09-11.82.22-17.74.23-4.63,0-9.27-.13-13.9-.2-.56,0-1.12-.02-1.68.02-1.56.12-1.77.29-1.79,1.9-.04,3.52-.02,7.04-.02,10.56,0,.88.03,1.76,0,2.64-.04,1.16.41,1.84,1.64,1.84,4.88-.02,9.75-.05,14.63-.05,1.59,0,3.17.07,4.76.07,4.16.01,8.32,0,12.47,0,.87,0,1.73,0,2.8,0,.18,1.21.45,2.21.46,3.21.03,17.11.02,34.22.01,51.34,0,.54-.09,1.09-.16,1.8h-56.44v-18.05c1.01-.06,2.02-.17,3.02-.18,4.24-.02,8.48-.07,12.71.02,1.39.03,2.5-.16,3.11-1.8.49.45.77.78,1.12,1.02.42.29.9.7,1.35.71,4.86.05,9.73.03,14.53.03,1.01-3,1.3-14.98.44-18.14-5.88-.22-11.85.12-18.05-.21v-18.21c-6.13.08-12-.47-18.11.4-.04,6.09-.08,11.87-.12,17.81h-36.41c-.73-3.08-.58-17.11.26-19.62.75-.04,1.6-.13,2.45-.13,4.08-.01,8.16,0,12.23,0,2.99,0,2.99-.02,2.99-3.11,0-3.68,0-7.36,0-11.04,0-.78,0-1.56,0-2.64-3.14-.37-6.07-.14-8.99-.18-2.87-.04-5.74,0-8.52,0-1.02-2.34-1.29-15.51-.46-19.79h17.87c.53,2.89.21,5.84.26,8.76.05,2.94.01,5.89.01,9.05,6.06.88,11.93.32,18.13.41.12-6.17-.02-12.13.09-18.32h36.19c.98-2.54.85-14.43-.18-18.29h-17.66v-18.28c-5.59-.04-10.82-.01-15.77-.01-.73.93-1.37,1.58-1.81,2.35-.33.57-.58,1.29-.59,1.95-.06,3.68-.03,7.36-.03,11.03,0,.86,0,1.73,0,2.84-1.07.06-1.91.14-2.76.14-3.84.01-7.68,0-11.52.01-1,0-2.04-.24-2.54,1.16-.24.66-1.19.66-1.5-.08-.44-1.07-1.2-1.1-2.12-1.09-4.24.02-8.48.09-12.71-.04-1.32-.04-1.95.78-2.88,1.63-.69-1.51-1.87-1.62-3.22-1.6-4.4.06-8.8.02-13.19.02-.85,0-1.71,0-2.83,0v-36.11c-2.09-.62-14.27-.81-18.16-.31-.25,11.99.01,24.02-.15,36.39-3.13,0-6.13.03-9.14.02-3.04-.01-6.07-.06-9.11-.09-.06-.87-.17-1.74-.18-2.62-.02-3.84,0-7.68-.01-11.51,0-.94.18-1.92-.98-2.47-.23-.11-.29-1.28-.15-1.35,1.48-.69,1.11-1.99,1.12-3.13.02-7.42.01-14.85.01-22.27,0-3.12,0-6.24,0-9.35,0-.69.11-1.38.18-2.33,1.04,0,1.91,0,2.77,0,3.84,0,7.68.02,11.51-.03.66,0,1.41-.21,1.95-.57.68-.46,1.18-1.18,1.77-1.8v-52.04c-2.94-.72-34.15-.77-36.36-.03,0,.65,0,1.36,0,2.07,0,4.32-.06,8.64.04,12.95.04,1.94.87,2.55,2.95,2.56,4.16.02,8.32,0,12.47.02.91,0,1.82.18,2.66.27.43,3.88.28,16.5-.24,18.42h-17.91v36.48c-1.56.07-2.82.18-4.08.18-9.91.01-19.83,0-29.74,0-.85,0-1.69,0-2.46,0-.97,4.37-.91,16.01.06,18.2,11.98.1,24.01-.09,36.29.11v18.21c1.1,0,1.96,0,2.82,0,5.19-.02,10.38-.03,15.57-.05Zm-445.46-36.31v-18.07c-2.6-.54-34.02-.6-36.25-.11-.52,3.32-.35,15.95.27,17.83.36.03.75.08,1.14.08,11.02-.01,22.03-.03,33.05-.03.62,0,1.24.15,1.86.23.04,5.96.08,11.92.13,17.99h73.32v-17.95c1.43-.09,2.61-.22,3.79-.23,4.08-.03,8.15,0,12.23-.02.68,0,1.37-.11,1.99-.16.55-3.29.49-15.92-.06-17.91-.28-.04-.58-.13-.89-.13-10.79-.01-21.58-.02-32.37,0-.84,0-1.69.27-2.69.44-.04,1.02-.11,1.88-.12,2.74-.01,4.16,0,8.31-.02,12.47,0,.83-.14,1.67-.23,2.66-1.23,0-2.18,0-3.13,0-15.83,0-31.65,0-47.48,0-1.52,0-3.03.11-4.54.16Zm111.77,166.48h-17.71c-.72,2.79-.75,16.13-.1,18.16.45.04.92.12,1.39.12,10.48,0,20.95.02,31.43-.01,1.01,0,2.02-.24,3.09-.38.06-.73.14-1.27.14-1.82,0-10.63.03-21.27-.03-31.9,0-1.18-.49-2.36-.73-3.4.26-1.22.7-2.38.73-3.56.09-3.76.03-7.52.04-11.27,0-.84.1-1.68.15-2.55h16.4v73.49h-15.49c-1.03,2.55-1.26,15.63-.44,18,4.93.59,15.58.29,17.64-.53.4-4.93-.24-9.95.34-14.86h36.7v15.3c6.13.61,12.04,0,18.23.41v17.76c1.48.17,2.64.41,3.81.42,3.92.05,7.84.02,11.75.02.78,0,1.57,0,2.62,0,.19,1.63.47,3.03.5,4.43.07,3.68,0,7.36.04,11.03.02,1.85.68,2.6,2.45,2.97.54.11,1.11.15,1.67.14,4.63-.11,9.26-.24,13.89-.36.48-.01.96,0,1.44,0,4.87.12,9.74.29,14.6.33,2.03.02,2.36-.39,2.38-2.43.04-4.08.03-8.16,0-12.23,0-.68-.2-1.36-.34-2.24h-18.07v-35.08c2.41-.8,35.51-.92,38.06-.19.06.14.17.28.18.43.03,4.56.11,9.11.04,13.67-.03,2.17-.59,2.58-2.83,2.59-4.32.03-8.64-.02-12.95.03-2.41.02-2.61.24-2.62,2.6-.02,4-.02,8,0,11.99,0,.69.13,1.39.23,2.36h36.19c.14,1.46.35,2.64.36,3.82.04,4.08,0,8.16.02,12.23,0,.69.1,1.38.17,2.38,6.09.03,12.02.61,18.01-.52,0-5.98,0-11.73,0-17.48,0-5.76-.06-11.51.02-17.27.08-5.71-.1-11.43.14-17.16h17.97c.6,2.71.46,70.29-.16,72.27-2.34,0-4.73,0-7.13,0-2.4,0-4.8,0-7.2,0-2.48,0-4.96,0-7.44,0-2.4,0-4.8-.02-7.2,0-2.36.02-4.73-.11-7.29.11v18.3h-18c-.56,3.66-.37,34.66.21,36.49.34.03.73.08,1.12.08,10.64,0,21.27.01,31.91,0,.94,0,1.88-.19,3.04-.32.14-12.18-.07-24.2.12-36.5h36.38c.07-1.53.19-2.79.19-4.05.01-10.16.04-20.31-.01-30.47-.01-2.47.94-3.5,3.4-3.4,3.91.15,7.84.06,11.75.02,1,0,2-.21,3.22-.34-.05-5.61.15-11-.15-16.61h-18.11c-.13-6.74-.21-13.24.06-19.85h18.27c.56,5.87-.02,11.7.36,17.77,5.95.96,11.81.26,17.95.49.04-6.29.07-12.23.11-18.22.81-.07,1.28-.13,1.74-.14,12.07-.03,24.15-.06,36.22-.06,11.11,0,22.23.05,33.34.04,1.1,0,2.2-.22,3.4-.34v-15.66c-.58-.31-1.45-.48-1.61-.91-.49-1.37-1.53-1.2-2.55-1.2-3.76,0-7.52,0-11.28-.01-.85,0-1.69-.12-2.64-.19v-18.3c6.08-.42,12.06.22,18-.39v-17.6c-1.35-.15-2.53-.37-3.7-.38-3.92-.05-7.84,0-11.75-.02-.84,0-1.68-.1-2.7-.16,0-1.14,0-2.01,0-2.88,0-3.84,0-7.68,0-11.52,0-1.72.24-3.51-1.33-4.96,1.35-.83,1.36-2,1.35-3.22-.03-3.84,0-7.68-.02-11.52,0-.69-.12-1.37-.19-2.18-1.39-.09-2.58-.23-3.77-.24-4.32-.03-8.64.03-12.95-.03-2.27-.03-2.82-.64-2.83-2.86-.02-4.24,0-8.48-.01-12.71,0-.84-.11-1.68-.17-2.71-12.29-.07-24.32.05-36.4-.07-.08-.89-.18-1.44-.18-1.99-.04-11.99-.08-23.99-.08-35.98,0-11.03.06-22.07.05-33.1,0-1.24-.33-2.49-.48-3.6-.38-.16-.52-.27-.67-.27-4.56-.02-9.11-.03-13.67-.06-.81,0-1.28.25-1.67,1.02-.49.94-1.41.96-1.83,0-.49-1.09-1.29-1.01-2.16-1.02-4.24,0-8.48,0-12.71,0-.85,0-1.69-.08-2.73-.13v-2.82c0-10.32,0-20.63,0-30.95,0-.72.25-1.66-.11-2.12-1.13-1.45-.69-3.04-.71-4.57-.06-4.08-.01-8.16-.03-12.23,0-.68-.1-1.37-.15-1.97h-36.29c-.24,6.1.12,12.05-.21,18.01-.68.05-1.07.1-1.46.1-7.44,0-14.87,0-22.31,0-9.84,0-19.67.01-29.51,0-2.84,0-3.18-.38-3.19-3.19-.02-4.08.01-8.16-.03-12.23,0-.91-.21-1.82-.34-2.87-1.05,0-1.84,0-2.63,0-4,0-8,.03-11.99-.02-1.15-.01-2.3-.26-3.55-.42-.09-6.11.05-11.91-.08-17.9-5.43,0-10.54-.06-15.64.03-1.72.03-2.18.67-2.2,2.46-.04,3.76-.06,7.52.03,11.27.02.79.61,1.56.78,2.37.15.71.41,1.78.06,2.13-.93.95-.87,2.02-.87,3.12-.02,4,0,8-.03,11.99,0,1.01-.19,2.02-.31,3.25-6.25-.03-12.27.07-18.53-.08v-18.22c-3.18,0-6.12,0-9.06,0-3,0-6.01-.03-9.2-.05v-18.25c-6.15-.06-12.08-.17-18.16.07,0,6.33.06,12.32-.02,18.31-.07,6.03.14,12.07-.15,18.29h-36.57c-.13,12.22-.04,24.24-.07,36.52h16.37c.07,1.02.17,1.81.17,2.59.02,4.56.02,9.12,0,13.67,0,2.25-.18,2.41-2.46,2.48-.56.02-1.12,0-1.68,0-3.12,0-6.24,0-9.36,0-1.03,0-2.01-.05-2.85.87-.64.7-1.64.71-2.3-.12-.67-.84-1.54-.75-2.4-.75-3.6-.02-7.2-.03-10.8,0-2.34.02-3,.63-3.03,2.97-.05,4-.02,8-.02,11.99,0,.87,0,1.74,0,2.83,1.13.07,2.06.17,3,.18,4.16.02,8.32,0,12.47.02.84,0,1.69.13,2.45.2.61,3.07.56,35.96-.06,38.21-5.92,0-11.9-.02-17.88,0-6.04.03-12.08-.17-18.41.12v18.11h-17.89c-.86,2.65-.75,14.6.13,18.25,5.93,0,11.91-.07,17.89.02,6.04.09,12.09-.22,18.21.2v18.23Zm351.65,75.56c-2.49-.56-51.86-.7-54.69-.14,0,5.99,0,12.04,0,18.09,0,5.99.03,11.99,0,17.98-.02,6.05-.09,12.1-.13,18.3-1.64.11-2.99.27-4.33.27-15.99.02-31.98,0-47.96.02-1.34,0-2.68.19-4.31.31v17.92c-6.17.47-12.07-.24-18.21.47-.19,5.95-.15,11.73-.05,17.73,6.28.39,12.26.15,18.24.19,6.05.03,12.11,0,18.35,0,.54,6.07-.07,11.88.38,17.9,1.3.16,2.47.42,3.63.43,16.15.03,32.3.02,48.45.01.78,0,1.55-.08,2.52-.13.05-1.04.13-1.9.13-2.76-.02-4.88-.09-9.75-.09-14.63.02-14.46.07-28.93.09-43.39.01-9.59,0-19.17,0-28.76,0-.64,0-1.28.02-1.92.04-.84.47-1.33,1.33-1.41.4-.03.8-.04,1.2-.05,5.43-.13,10.85-.25,16.28-.37.48,0,.95.11,1.43.11,4.95.04,9.9.1,14.85.08.93,0,1.86-.31,2.89-.5v-15.77ZM404.75,251.88c5.19,0,9.97.02,14.76-.02.99,0,3.03-2.3,3.03-3.33.02-4.32.01-8.63.01-12.95,0-.73,0-1.4-.77-1.86-.79-.47-.88-1.29-.09-1.73.92-.51.86-1.24.86-2.03,0-4.16-.16-8.32.09-12.47.09-1.51-1.62-1.95-1.34-3.04.28-1.09,1.4-1.79,1.32-3.27-.19-3.83-.06-7.67-.07-11.51,0-.7-.1-1.39-.16-2.28-1.37-.13-2.62-.35-3.87-.36-3.84-.05-7.67,0-11.51-.02-2.51,0-2.71-.21-2.81-2.7-.02-.56,0-1.12,0-1.68,0-3.76.04-7.52-.03-11.27-.01-.72-.31-1.51-.7-2.12-.44-.69-1.14-1.21-1.83-1.9h-14.93c-.22,1.21-.6,2.35-.62,3.49-.07,4.32-.01,8.63-.04,12.95,0,1-.19,2.01-.32,3.31h-17.95c-.1,1.25-.24,2.19-.25,3.13-.03,4.08,0,8.15-.02,12.23,0,.85-.15,1.69-.24,2.69-1.23.09-2.25.21-3.27.22-4.16.02-8.31.02-12.47,0-1.3,0-2.54.13-3.49,1.13v14.6c.65.45,1.47.73,1.72,1.27.49,1.03,1.23,1.1,2.15,1.1,3.84,0,7.68-.01,11.51,0,.91,0,1.68-.08,2.29-.94.69-.98,1.76-.94,2.43-.06.77,1.01,1.72,1.01,2.76,1.01,3.52,0,7.04,0,10.55,0,.97,0,1.85,0,2.53-.95.68-.96,1.78-.95,2.43-.05.76,1.06,1.73,1,2.76,1,4.08,0,8.15-.01,12.23.02.93,0,1.85.16,2.89.26.05,1,.11,1.79.11,2.57.01,3.92-.02,7.84.02,11.75.01,1.18.2,2.35.34,3.8Zm333.23,388.52h54.68v-54.43c-2.32-.56-52.74-.52-54.68.04v54.39Zm-130.77-370.36c.7-2.31.78-15.38.14-17.69-1.22-.06-2.49-.18-3.75-.19-3.84-.03-7.67,0-11.51-.02-.84,0-1.68-.1-2.71-.17,0-4.76.01-9.22,0-13.69,0-1.99.52-4.13-1.79-5.64,1.71-.81,1.82-2.1,1.8-3.5-.04-3.04,0-6.07-.02-9.11-.02-2,.46-4.14-1.31-5.36.5-1.09,1.22-1.95,1.24-2.83.11-4.39.04-8.79,0-13.18,0-.38-.18-.75-.27-1.08-2.5-.67-15.33-.79-17.88-.12,0,.8,0,1.66,0,2.52,0,3.92.02,7.83-.02,11.75-.01,1.16-.21,2.32-.34,3.69h-17.89c-.08,1.06-.2,1.91-.2,2.76.01,4.95.09,9.91.09,14.86-.01,11.1-.07,22.21-.08,33.31,0,1.24.22,2.49.36,3.88,1.19.05,2.13.13,3.07.13,7.9.01,15.8.03,23.7,0,2.95-.01,5.9-.22,8.85-.21,5.03.02,10.06.16,15.09.2,1.17,0,2.34-.21,3.41-.31Zm-129.19-35.94c-.07.63-.17,1.1-.17,1.56-.01,4.24-.02,8.47,0,12.71,0,1.88,1.61,3.49,3.57,3.51,4.23.05,8.47.02,12.71.01.79,0,1.56.05,2.07-.85.16-.28,1.3-.42,1.37-.28.88,1.57,2.34,1.11,3.63,1.12,3.44.04,6.87.02,10.31,0,.78,0,1.55-.09,2.54-.14.12-1.32.3-2.5.31-3.67.04-4,0-7.99.02-11.99,0-.76.09-1.53.15-2.43,1.2-.07,2.15-.17,3.09-.18,3.84-.02,7.68-.12,11.5.03,2.39.09,3.58-.46,3.58-3.48.01-4.16.01-8.31,0-12.47,0-.68-.15-1.35-.25-2.14-6.1-.14-11.97.05-18.1-.12v-18.09c-.88-.08-1.49-.19-2.11-.19-10.31-.01-20.61-.02-30.92,0-1.09,0-2.18.2-3.36.32v16.07c5.95.67,11.85-.04,18.06.45.24,6.67.28,13.15-.01,19.7-6.18.51-12.1-.3-18,.52Zm-130.82,91.44h-15.4c-.52.56-1.02,1.09-1.43,1.53-.88-.63-1.54-1.49-2.21-1.5-4.94-.12-9.88-.06-14.37-.06-1.14,1.01-1.94,1.71-2.63,2.31v15.86h18c.11,1.53.27,2.78.28,4.04.04,3.75,0,7.51.02,11.26,0,.86.08,1.72.13,2.5,2.74.76,33.66.93,36.3.23.05-.43.16-.9.16-1.36,0-10.54.02-21.09-.01-31.63,0-1.01-.28-2.01-.41-2.89-.36-.16-.5-.29-.64-.29-4.63-.02-9.27-.02-13.9-.06-.83,0-1.24.31-1.63,1.06-.41.8-1.11.81-1.65-.02-.21-.32-.4-.66-.6-.99Zm112.14,296.91c3.97-.46,16.57-.32,18.56.23v17.69h17.86c.51-2.95.37-34.37-.13-36.19-3.58-.48-52.77-.25-54.34.28v35.91h18.05v-17.92Zm-36.48-75.3c1.1.12,2.11.32,3.11.33,4.08.04,8.16,0,12.23.03,2.28.02,2.79.54,2.9,2.82.03.56,0,1.12,0,1.68,0,9.75-.01,19.51.01,29.26,0,1.32.2,2.64.31,4.1,5.4,0,10.51-.01,15.61,0,1.4,0,2.01-.8,2.21-2.02.11-.7.11-1.43.11-2.15.01-3.84,0-7.68.01-11.51,0-.83.12-1.67.2-2.71h17.73c.82-6.07.21-11.93.43-18.14h-18.4v-17.95c-3.28-.51-34.56-.43-36.5.08v16.18Zm-55.03-18.25c1.06,0,1.92,0,2.78,0,4.96-.04,9.91-.12,14.87-.11,11.19.01,22.38.08,33.57.09,1.09,0,2.18-.26,3.36-.41v-15.79c-1.19-.25-2.27-.65-3.36-.66-4.32-.07-8.64-.04-12.95,0-1.03,0-2.06.32-3.09.3-2.79-.06-5.57-.26-8.36-.33-2.64-.06-5.28.02-7.92-.04-1.7-.04-2.11-.46-2.29-2.1-.06-.55-.03-1.12-.03-1.68,0-4,.05-8-.03-11.99-.02-1.22-.38-2.43-.6-3.73-5.04,0-9.75-.02-14.46.03-.45,0-.95.42-1.32.76-1.03.95-1.06.94-2.2-.11-.36-.34-.92-.66-1.39-.66-4.71-.05-9.42-.03-13.81-.03-.95,1-1.68,1.76-2.54,2.66v14.85c1.31.21,2.53.56,3.76.58,4.32.07,8.64,0,12.95.04,2.49.03,2.7.27,2.71,2.8.02,4.08-.01,8.16.02,12.24,0,1.01.19,2.02.31,3.3Zm313.23-331.62c-3.66-.53-52.59-.3-54.84.28-.01,5.24-.02,10.54,0,16.15h17.96c.14,1.45.34,2.62.35,3.8.04,3.76.03,7.51.01,11.27,0,1.57-.18,3.16,1.85,4.47-2.11.32-1.84,1.58-1.84,2.7-.01,3.92-.01,7.83,0,11.75,0,.7.08,1.4.12,2.01.65.33,1.42.47,1.57.85.57,1.51,1.76,1.35,2.95,1.35,3.6,0,7.19,0,10.79-.01.77,0,1.54-.11,2.48-.18.11-1.46.29-2.72.29-3.97.02-9.99,0-19.98.03-29.98,0-1.31.27-2.62.44-4.15h17.83v-16.32Zm-73.42-20.47c.07-.7.13-1.02.13-1.33,0-10.54.02-21.09,0-31.63,0-2.59-.83-3.39-3.5-3.42-3.99-.05-7.99-.01-11.98-.02-.86,0-1.72,0-2.89,0,0-1.07,0-1.85,0-2.63,0-3.99.02-7.99,0-11.98-.03-3.26-.54-3.77-3.74-3.78-3.28-.02-6.55,0-9.83,0-1.42,0-2.84,0-4.19,0-.66,2.66-.61,34.62.07,36.69h17.86v18.31c6.18-.08,12.05.18,18.08-.2Zm.36,502.16c-.35,6.19.19,12.09-.36,18.27-6.18,0-12.15,0-18.12,0-6.04,0-12.08-.21-18.11.1-.11.58-.21.89-.22,1.2-.01,4.64-.02,9.27-.01,13.91,0,.32.02.64.08.95.32,1.6.6,1.89,2.21,1.9,3.92.04,7.84-.11,11.75.08,1.44.07,2-1.27,3.18-1.33,1.29-.07,1.88,1.42,3.39,1.34,3.98-.22,7.99-.05,11.99-.1.67,0,1.49-.17,1.96-.58,1.11-.98,2.46-.84,3.34-.26,1.42.94,2.85.85,4.35.86,2.08.01,4.16-.1,6.23.03,2.38.16,4.52-.23,6.32-1.89.49-6.4.25-32.65-.34-34.49h-17.65Zm75.5-501.75c-.35,1.4-.83,2.46-.85,3.53-.09,4.15-.07,8.31-.02,12.46.02,2.02.2,2.15,2.26,2.16,4.31.02,8.63,0,12.94,0,1.02,0,2.03,0,3.24,0,.36,6.23-.08,12.19.28,18.33,5.64-.11,11.03.19,16.63-.19v-3.08c0-6.7.02-13.4,0-20.1-.02-4.23-.15-8.46-.15-12.69,0-4.95.13-9.9.13-14.85,0-1.24-.29-2.49-.46-3.82h-15.9c-.13,1.37-.34,2.62-.35,3.87-.04,3.99,0,7.99-.03,11.98-.01,1.95-.26,2.27-2.18,2.33-3.35.1-6.71.05-10.06.06-1.75,0-3.49,0-5.46,0Zm-281.25,130.1h-34.1c-.9,4.06-.91,15.8-.03,17.97.36.03.76.08,1.15.08,10.56,0,21.11,0,31.67,0,.4,0,.8.01,1.2-.04,1.73-.22,2.03-.52,2.05-2.28.03-3.44.01-6.88,0-10.32,0-1.42.26-2.89-1.37-3.79-.35-.2-.37-1-.57-1.63Zm-55.06-37.08c.64-2.47.74-15.5.19-17.81-2.62-.48-33.85-.36-36.1.14-.04.07-.11.14-.11.21-.05,4.87-.12,9.74-.12,14.61,0,.46.42.95.74,1.36,1.05,1.38,2.46,1.72,4.16,1.66,4.79-.17,9.58-.25,14.38-.25,4.79,0,9.58.15,14.38.22.86.01,1.71-.08,2.5-.12Zm75.36,391.11c-.72-.44-1.54-.65-1.72-1.1-.51-1.33-1.52-1.21-2.56-1.21-3.68,0-7.35-.01-11.03,0-1.98,0-2.52.48-2.81,2.42-.07.47-.04.96-.04,1.44,0,10.15,0,20.29,0,30.44,0,.69.11,1.38.18,2.11.62.13,1.08.3,1.54.31,4.39.02,8.79.06,13.18-.01,1.06-.02,2.11-.46,3.25-.72,0-5.01.02-9.8-.03-14.59,0-.47-.32-1.06-.68-1.38-.78-.68-.89-1.19-.09-1.95.4-.38.77-1.01.77-1.53.06-4.71.03-9.42.03-14.23Zm18.77-445.82c-.09.73-.19,1.2-.19,1.66,0,10.54-.02,21.07.01,31.61,0,.99.3,1.98.45,2.88,4.67.55,15.28.32,17.16-.32.78-2.17.94-33.43.13-35.83h-17.56Zm-148.49,276.49h36.1c.54-2.81.38-15.55-.23-17.86h-35.45c-.7,2.16-.93,11.79-.43,17.86Zm296.33,57.42c-2.29-.64-33.61-.79-36.25-.17-.06.41-.17.87-.17,1.34-.01,4.39-.05,8.79.02,13.18.02,1.06.43,2.12.68,3.26,4.92,0,9.62.02,14.33-.03.43,0,.95-.42,1.28-.78,1.01-1.1,1.22-1.07,2.32.06.38.39,1.03.73,1.55.73,4.71.06,9.42.03,14.08.03.44-.6.72-1.4,1.2-1.55,1.16-.35,1.19-1.14,1.19-2.05,0-4.23,0-8.47-.01-12.7,0-.46-.14-.92-.21-1.32Zm-204.9,127.62c.07-.67.15-1.06.15-1.45,0-10.54.02-21.09-.01-31.63,0-1.07-.34-2.13-.51-3.17h-15.82c-.2,1.64-.54,3.19-.54,4.75.02,4.87.27,9.73.27,14.6,0,4.71-.21,9.41-.28,14.12-.01.91.2,1.83.31,2.79h16.43Zm408.91-370.14h17.75c.54-3.35.38-16.09-.25-18.06-5.74.06-11.53-.15-17.5.15v17.91Zm-36.84,148.53c6.13-.06,12,.13,18.05-.14.04-6.16.16-12.01-.06-17.98h-17.99v18.12Zm36.31-166.86v-17.91h-18.05c0,6.02-.15,11.88.11,17.91h17.94Zm-388.12-.34c.33.29.39.38.45.38,5.03.04,10.07.14,15.1.08,2.01-.02,2.45-.61,2.47-2.71.04-4.72,0-9.44-.02-14.15,0-.3-.13-.59-.26-1.17-5.89-.29-11.75-.12-17.84-.14.04,6.21-.15,12.08.11,17.71Zm-129.44,204.19c-.84,2.22-1.02,15.53-.25,18.14,5.79-.11,11.66.21,17.63-.23v-15.9c-1.53-1.91-3.54-2.2-5.78-2.04-1.91.13-3.83.03-5.74.03s-3.97,0-5.86,0Zm369.34-315.6c-.13-6.02.26-11.94-.25-17.98-5.1,0-9.88-.02-14.66.03-.54,0-1.1.43-1.59.75-.58.39-1.1.88-1.53,1.24v15.95h18.04Zm147.97,56.96c-5.79-.04-11.66-.15-17.66.08-.07.96-.17,1.66-.17,2.36-.01,3.92-.02,7.83,0,11.75,0,2.57,1.31,3.89,3.93,3.91,3.76.03,7.51.02,11.27,0,.85,0,1.69-.16,2.44-.23.74-2.45.88-15.17.2-17.86Zm-296.53,333.73c-3.42-.6-15.99-.38-17.93.31v15.47c.5.26,1.18.39,1.3.72.57,1.63,1.88,1.41,3.12,1.41,3.67,0,7.35,0,11.02,0,.77,0,1.54-.09,2.49-.16v-17.74Zm73.29-445.73c.59-1.19,1.54-2.28,1.59-3.4.18-4.22.05-8.45.09-12.68,0-1.08-.52-1.63-1.48-1.85-.54-.12-1.1-.16-1.66-.16-4.39-.01-8.78-.01-13.17,0-.52,0-1.05.14-1.81.25.12,5.99-.24,11.86.27,17.84h16.16Zm186.86,591.63v-15.88c-6-.66-11.92-.22-18.11-.32,0,2.57,0,4.79,0,7,0,2.71-.04,5.43.01,8.14.04,2.45.56,2.93,2.97,2.95,2.71.02,5.43.02,8.14,0,2.26-.01,4.62.41,6.42-1.53.1-.11.26-.17.56-.37Zm-332.56-72.73c-.81,2.58-.99,15.59-.27,18.19,5.82-.13,11.69.24,17.76-.25,0-5.19.03-10.13-.02-15.07-.01-1.16-1.99-2.85-3.23-2.86-3.19-.03-6.39-.01-9.58-.01-1.58,0-3.16,0-4.66,0Zm90.93-91.83c-6.21.25-12.08-.33-18.05.37v15.37c.84.8,1.61,1.53,2.48,2.36h15.23c.66-5.92.19-11.8.33-18.11Zm-109.45-390.01c-.67,2.89-.71,15.88-.08,18.17,5.78-.18,11.65.45,17.69-.43,0-5.13,0-9.98-.01-14.84,0-.29-.11-.66-.31-.85-1.27-1.23-2.45-2.59-4.58-2.09-.91.21-1.91.04-2.87.04-3.26,0-6.53,0-9.84,0Zm36,93.57c-6.17-.49-12.03-.18-18.2-.25.1,6.14-.22,12,.21,17.66.34.23.41.31.48.31,4.86.07,9.71.16,14.57.18.76,0,2.93-2.24,2.93-2.98.03-4.86.01-9.72.01-14.92Zm224.76,314.51h14.73c.91-2.75,1.1-15.45.27-17.98-5.12,0-10.3-.02-15.48.03-.67,0-1.33.35-2.05.55v14.86c.95.96,1.68,1.7,2.51,2.54Zm108.64-17.86h-17.88c-.1.37-.22.59-.22.81-.02,4.8-.05,9.59,0,14.39,0,.9.37,1.8.6,2.8,4.22,0,8.21,0,12.19,0,1.54,0,3.18.33,4.11-1.49.15-.29.81-.32,1.2-.46v-16.05Zm-18.37,127.91v-15.8c-.68-.33-1.57-.46-1.72-.87-.55-1.45-1.68-1.25-2.78-1.26-3.59,0-7.18-.02-10.77,0-1.99.01-2.51.48-2.77,2.45-.05.39-.03.8-.03,1.2,0,4.15,0,8.3,0,12.45,0,.61.11,1.23.19,2.05,6-.08,11.86.2,17.88-.21ZM386.03,252.16c.16,6.22-.3,12.08.32,18.05h15.86c.3-.67.38-1.4.77-1.63,1.26-.77,1.23-1.91,1.22-3.13-.03-3.43,0-6.86-.01-10.29,0-2.52-.33-2.89-2.91-2.98-2.39-.08-4.79-.02-7.18-.02-2.54,0-5.08,0-8.07,0Zm91.69,424.92c0-5.31.06-10.4-.03-15.49-.03-1.83-.89-2.51-2.78-2.53-3.83-.04-7.67-.04-11.5.01-.58,0-1.2.27-1.71.58-.7.42-1.32.98-2.04,1.54-.4,3.63-.25,14.08.27,15.89h17.79Zm203.47-424.63c-.67-.16-.9-.26-1.13-.26-4.71-.02-9.42-.05-14.13,0-.91,0-1.82.34-2.86.55,0,4.04-.01,7.86,0,11.69,0,1.69-.43,3.55,1.55,4.58.21,1.46,1.32,1.36,2.36,1.36,3.91,0,7.82,0,11.73,0,.62,0,1.24-.12,2.1-.21.76-5.93.23-11.78.37-17.71Zm-425.01-37.06c-.06,1.08-.14,1.86-.14,2.63-.02,2.56,0,5.11,0,7.67,0,1.68-.05,3.36.02,5.03.08,2.08.74,2.75,2.73,2.76,3.67.03,7.35.04,11.02-.02.67,0,1.39-.23,1.97-.56.78-.43,1.45-1.06,2.29-1.7v-15.46c-6-.68-11.86-.21-17.88-.35Zm297.17-56.44c-.76,2.7-.9,15.4-.23,17.87.25.06.55.18.85.18,4.63.02,9.26.06,13.89-.01.96-.02,1.92-.49,2.94-.77,0-4.1.01-7.93,0-11.76,0-1.62.39-3.38-1.47-4.43-.33-.19-.44-.77-.61-1.08h-15.37Zm-167.29,538.59c0,5.26-.06,10.36.04,15.45.03,1.72.86,2.31,2.65,2.33,3.75.03,7.5.03,11.24,0,2.26-.01,4.17-1.99,4.18-4.31.02-3.51.01-7.02,0-10.53,0-2.45-.61-3.21-3-3.25-4.62-.07-9.25-.01-13.87,0-.3,0-.6.14-1.23.29ZM680.76,158.98h-15.43c-.41.62-.67,1.46-1.2,1.7-.96.43-1.04,1.09-1.04,1.91,0,4.22,0,8.45.03,12.67,0,.37.18.75.26,1.06,2.25.83,15.14,1.02,17.8.23-.13-5.77.46-11.62-.41-17.57Zm56.85,187.33c-.55-.3-1.3-.46-1.6-.92-.87-1.31-2.11-1.25-3.39-1.24-3.35,0-6.7-.02-10.05.01-2.34.02-2.95.63-2.99,3.01-.05,2.55-.01,5.1-.01,7.66,0,2.3,0,4.6,0,7.2,6.13.01,12.04.54,18.04-.38v-15.34Zm-499.55-57.37c-.57,3.45-.47,16.19.15,18.13,4.96,0,9.97.04,14.98-.02,2.03-.03,2.49-.55,2.53-2.64.06-3.11-.06-6.22.06-9.32.08-2.28-.1-4.4-1.98-6.15h-15.73Zm73.07,90.98c2.38.86,15.33,1.03,17.81.29.53-2.53.41-14.64-.24-16.5-5.77.08-11.63-.4-17.57.33v15.88Zm445.2,315.35c2.33.78,15.19.7,17.95-.09v-15.88c-2.94-.71-16.11-.65-17.95.05v15.92Zm-278.75-166.54v-16.6c-6.07-.15-11.99-.53-18.07.34.06,5.53-.15,10.83.14,16.25h17.93Zm388.49-18.33c.13-.71.32-1.24.32-1.78.02-4.31.06-8.62-.02-12.93-.02-1.06-.47-2.12-.7-3.09h-15.4c-.88,2.35-1.12,14.99-.34,17.8h16.14Zm-554.92,18.33h17.9v-16.27c-3.17-.89-15.21-.59-18.05.45,0,4.65,0,9.35,0,14.06,0,.47.08.93.15,1.76Zm166.78,18.06c4.64,1.01,15.74,1,17.98.03v-16.24c-6.07.07-11.99-.21-17.98.19v16.01Zm-91.63-182.86c-.11.52-.23.83-.23,1.14-.02,4.55-.04,9.1,0,13.66.01,1.65.24,1.86,2.03,1.89,3.11.05,6.23.02,9.34.02,1.28,0,2.56.06,3.83-.05,1.72-.14,2.87-1.02,2.89-2.24.05-4.15.01-8.31.02-12.46,0-.81-.29-1.39-1.12-1.61-.76-.2-1.51-.58-2.27-.59-4.31-.06-8.62-.03-12.94-.01-.46,0-.92.15-1.56.25Zm164.05,351.37c.36-1.28.85-2.25.87-3.24.09-4.31.08-8.62.01-12.94-.02-1.65-.33-1.9-2.04-1.91-4.23-.03-8.47-.03-12.7,0-2.01.01-2.15.16-2.16,2.22-.03,4.15-.03,8.31.01,12.46,0,.77.28,1.54.49,2.29.22.79.79,1.13,1.62,1.13,4.54-.01,9.09,0,13.89,0Zm149.06-499.7c-.72-.1-1.18-.21-1.64-.21-4.31-.01-8.61-.03-12.92,0-1.95.01-2.2.23-2.22,2.24-.05,4.15-.05,8.3.02,12.44.01.75.46,1.48.67,2.24.22.83.75,1.15,1.58,1.15,4.15,0,8.3,0,12.44,0,.81,0,1.41-.27,1.64-1.09.23-.82.58-1.65.6-2.49.06-4.07.03-8.14.02-12.2,0-.62-.1-1.25-.17-2.09Zm-331.53,166.69c-.15.66-.33,1.11-.33,1.57-.03,4.32-.08,8.64.02,12.95.02,1.06.54,2.12.83,3.16.78.08,1.33.19,1.88.19,3.76.01,7.52.03,11.28,0,2.14-.02,2.83-.67,2.86-2.9.06-4.64.01-9.28,0-13.91,0-.3-.15-.6-.26-1.05h-16.25Zm333.64-56.68c-.59,6.13-.21,11.98-.3,17.91h16.72c-.19-6.08.55-12.01-.49-17.91h-15.94Zm0,38.31c-.12.44-.27.74-.27,1.04-.02,4.64-.05,9.27-.01,13.91.01,1.48.28,1.72,1.94,1.73,4.24.04,8.47.05,12.71,0,1.8-.02,2.05-.31,2.07-2.15.03-4.16.03-8.31,0-12.47-.01-2.11-.2-2.3-2.36-2.32-4.08-.03-8.15-.02-12.23,0-.61,0-1.23.16-1.85.25Z"/>
  <path class="cls-1" d="m328.78,733.77h-129.34c-.08-1.47-.22-2.8-.22-4.13-.01-40.85,0-81.71,0-122.56,0-.87,0-1.74,0-2.73.65-.16,1.16-.36,1.68-.4,1.11-.09,2.23-.12,3.35-.12,40.45,0,80.91,0,121.36,0h3.24c.56,2.48.49,127.16-.07,129.94Zm-17.89-111.41c-1.07-.06-1.78-.13-2.49-.13-29.1,0-58.2-.01-87.3,0-1.08,0-2.16.22-3.42.36,0,1.2,0,2.16,0,3.11,0,28.46,0,56.92.01,85.38,0,1.32.18,2.65.29,4.24h3.37c28.54,0,57.08,0,85.62,0q3.9,0,3.91-4.04c0-28.7,0-57.4,0-86.1,0-.86,0-1.73,0-2.83Z"/>
  <path class="cls-1" d="m885.99,47.64v2.66c0,41.03,0,82.05,0,123.08,0,3.32-.31,3.64-3.75,3.64-41.19,0-82.37,0-123.55,0-.71,0-1.42,0-1.92,0-.27-.24-.34-.28-.39-.34-.05-.06-.13-.12-.13-.19-.06-.63-.15-1.27-.15-1.9,0-41.82.02-83.65.05-125.47,0-.39.1-.79.2-1.18.06-.22.19-.43.29-.62,3.35-.53,127.07-.32,129.37.33Zm-110.96,17.82c-.22,1.53-.57,2.83-.58,4.13-.03,28.71-.02,57.42-.02,86.12v2.51c2.44.64,89.89.57,91.85-.06.05-1.04.14-2.15.14-3.25,0-28.15,0-56.3,0-84.45,0-.48,0-.96,0-1.44-.1-3.25-.43-3.58-3.57-3.58-28.31,0-56.62,0-84.93,0h-2.89Z"/>
  <path class="cls-1" d="m329.12,176.68c-2.74.55-127.46.42-129.56-.09-.53-2.21-.46-126.96.06-129.13,1.81-.49,126.64-.57,129.33-.03.09,1.11.27,2.28.27,3.45.01,41.18.01,82.35,0,123.53,0,.78-.07,1.56-.11,2.28Zm-18.22-18.02v-3.19c0-15.35,0-30.71,0-46.06,0-13.35,0-26.71-.02-40.06,0-1.23-.24-2.47-.35-3.6-3.47-.54-90.69-.37-92.34.12-.6,2.09-.76,89.56-.13,92.38.87.13,1.8.4,2.73.4,29.97.02,59.93.02,90.11.02Z"/>
  <path class="cls-1" d="m347.99,103.67c-.54-3.66-.35-54.23.22-56.53h74.2c.11,1.22.3,2.38.31,3.55.04,4,0,7.99.02,11.99,0,.78.07,1.57.11,2.29,2.34.75,15.02.65,17.95-.15.05-.76.14-1.6.14-2.45.02-3.84-.02-7.68.03-11.51.02-1.17.25-2.34.4-3.63h17.63c.17.99.47,1.99.47,2.98.03,10.87.02,21.75,0,32.62,0,.78-.12,1.56-.21,2.57h-36.51v36.48h-18.41c-.06-.88-.16-1.73-.16-2.57-.02-4.16,0-8.31-.01-12.47,0-2.5-.55-3.08-3.09-3.11-4.24-.04-8.47,0-12.71-.02-1.19,0-2.37-.14-3.51-.21-.53-1.81-.69-13.88-.24-17.84.99-.12,2.06-.35,3.13-.36,4.16-.04,8.31-.01,12.47-.02.93,0,1.83.17,2.35-1.09.35-.85,1.23-.74,1.87.02.15.18.2.43.32.64.08.13.21.24.32.36h14.86c.91-.9,1.66-1.65,2.47-2.46v-15.33c-1.21-.12-2.3-.31-3.39-.32-16.31-.02-32.62-.02-48.92,0-.71,0-1.42.07-2.32.11-.1.96-.28,1.81-.27,2.66.07,4.71.28,9.42.27,14.13-.01,5.91-.2,11.82-.29,17.72-.02,1.16-.5,1.8-1.66,1.91-.16.02-.32.06-.47.06-5.75,0-11.49,0-17.37,0Z"/>
  <path class="cls-1" d="m329.4,418.75c.09,6.31.06,12.26.03,18.27h-111.54c-.07-.99-.18-1.84-.18-2.68-.02-4.24,0-8.47-.02-12.71,0-.85-.1-1.71-.17-2.76h-17.84c-.55-1.87-.68-15.14-.24-18.05,2.36-.93,16.8-.89,19.62.13.04.77.12,1.63.13,2.49.02,3.52-.04,7.04.03,10.55.03,1.5.28,2.99.45,4.61h15.57c.69-1.33.97-2.77.93-4.31-.1-4.87-.21-9.74-.21-14.61,0-5.03.16-10.06.19-15.1.04-6.62,0-13.25.02-19.87,0-2.09.23-2.48,2.27-2.51,5.51-.08,11.03,0,16.54.02.22,0,.43.16.86.34.07,1.11.2,2.29.2,3.46.02,10.07,0,20.15.02,30.22,0,1.17.22,2.34.35,3.71,1.05.08,1.9.21,2.75.21,4.08.02,8.15,0,12.23.03.93,0,1.86.19,3.06.31v18.17c9.35.18,18.43,0,27.5.06,9.02.06,18.03.01,27.47.01Z"/>
  <path class="cls-1" d="m199.53,510.73h19.48c.07,1,.17,1.84.17,2.69.02,3.92,0,7.83,0,11.75,0,5.98,0,11.96,0,17.95,0,6.86,0,13.73,0,20.59,0,6.47,0,12.94-.01,19.41,0,.62-.11,1.25-.19,2.17-6.5.58-12.92.27-19.29.18-.59-1.91-.72-71.79-.16-74.74Z"/>
  <path class="cls-1" d="m552.55,47.16v19.79h-74.65c-.25-6.58-.28-13.07.02-19.79h74.63Z"/>
  <path class="cls-1" d="m459.35,140.26h-18.36c-.09-12.21-.08-24.29,0-36.53h18.37v36.53Z"/>
  <path class="cls-1" d="m811.44,529.03h17.63c.79,2.05.97,16.56.25,19.71h-17.95c-.25-6.5-.35-13.04.07-19.71Z"/>
  <path class="cls-1" d="m579.05,353.68c2.64-.52,5.13-1.03,7.63-1.49,11.22-2.06,22.53-2.57,33.91-1.82,4.27.28,5.83,1.82,6.15,6.09.8,10.73.3,21.4-1.41,32.03-1.53,9.52-4.05,18.72-8.26,27.44-4.55,9.44-10.72,17.56-19.08,23.96-.32.24-.63.49-.93.76-.11.1-.17.26-.42.65,1.37,1.41,2.84,2.82,4.19,4.35.72.82,1.45,1.76,1.78,2.77.65,1.99,0,3.74-1.54,5.19-6.74,6.34-14.17,11.7-22.53,15.7-8.72,4.17-17.87,6.89-27.49,7.97-19.25,2.16-37.28-1.68-53.78-11.75-15.12-9.23-26.47-21.99-33.69-38.27-6.34-14.29-8.49-29.2-6.6-44.71,2.16-17.83,9.31-33.4,21.19-46.84.74-.84,1.45-1.71,2.22-2.52,2.43-2.54,5.23-2.66,7.78-.19,3.73,3.62,7.37,7.33,11.04,11,1.8,1.8,3.58,3.62,5.54,5.6.45-.68.83-1.15,1.09-1.67,7.24-14.31,17.33-26.4,29.03-37.23.94-.87,1.94-1.67,2.96-2.43,2.19-1.64,4.51-1.73,6.56.12,4.02,3.64,8.03,7.32,11.78,11.24,6.7,7.01,12.57,14.69,17.34,23.16,1.6,2.85,2.98,5.83,4.46,8.75.35.7.7,1.4,1.07,2.14Zm-43.04,26.58c.04-.91.11-1.74.11-2.57,0-9.44,0-18.87.01-28.31,0-.88-.02-1.77.13-2.63.46-2.63,2.45-4.24,5.05-4.15,2.53.09,4.42,1.95,4.64,4.59.06.71.03,1.44.03,2.16,0,13.11.02,26.23-.03,39.34,0,1.46.37,2.54,1.44,3.59,5.81,5.72,11.55,11.51,17.32,17.27.43.43.93.78,1.51,1.26.37-.64.69-1.09.9-1.59,1.53-3.6,3.21-7.15,4.53-10.83,2.15-5.99,3.08-12.25,3.02-18.6-.09-10.04-2.93-19.39-7.55-28.22-6.32-12.1-14.8-22.55-24.69-31.89-.44-.41-.96-.73-1.57-1.19-11.82,11.38-22.05,23.67-28.17,38.3,7.96,8.02,15.54,15.64,23.31,23.47Zm47.2,62.51c-12.89,10.2-27.61,15.56-44.3,14.9-16.77-.67-31.26-6.91-43.22-18.64-9.68-9.49-15.83-21.03-18.18-34.42-3.52-20.06,1.51-38.01,14.33-54.28-1.33-1.15-2.52-2.21-3.74-3.25-1.24-1.07-2.12-2.57-3.67-3.27-25.61,29.81-25.06,76.56,7.16,105.14,31.03,27.53,73.86,22.85,98.63.74-2.25-2.22-4.51-4.44-7.01-6.91Zm1.04-57.81c.21.1.42.2.63.29.62-.58,1.24-1.16,1.85-1.75,2.21-2.19,4.36-4.45,6.63-6.58,1.56-1.46,3.79-1.64,5.57-.67,1.79.97,3.02,3.1,2.49,5.01-.34,1.24-1.11,2.49-2.01,3.42-5.19,5.31-10.44,10.57-15.76,15.76-2.21,2.15-4.12,4.41-5.01,7.43-.34,1.14-.94,2.2-1.47,3.28-1.16,2.35-2.36,4.69-3.64,7.23,5.25,5.22,10.49,10.43,15.74,15.66,5.15-3.35,9.15-7.44,12.64-12.04,5.83-7.7,9.46-16.43,11.82-25.72,2.79-11,3.68-22.2,3.55-33.5-.01-.86-.13-1.71-.2-2.49-5.72-1.33-32.18.93-34.59,3.27.59,3.59,1.4,7.11,1.69,10.67.29,3.56.06,7.16.06,10.75Zm-85.74-27.02c-6.92,8.79-10.97,18.68-12.03,29.92.66.1,1.05.21,1.43.21,13.41-.03,26.81-.06,40.22-.1.05,0,.12-.09.16-.15.04-.06.07-.14.04-.07-9.89-9.89-19.75-19.74-29.82-29.8Zm47.52,47.49c0,3.88,0,7.37,0,10.85v10.31c0,3.52-.02,7.03,0,10.55.03,3.47-.12,6.94.11,10.58,11.48-1.24,21.42-5.15,30.01-12.11-10.04-10.06-19.9-19.93-30.13-30.18Zm-17.6-7.32c-.28-.08-.5-.19-.71-.19-13.26-.01-26.53-.02-39.79-.01-.31,0-.62.09-.93.16-.07.01-.15.07-.2.13-.05.05-.09.13-.25.38,1.13,10.93,5.3,20.7,12.24,29.2,9.95-9.95,19.75-19.76,29.65-29.66Zm7.43,49.51c.6-2.68.5-40.3-.13-42.2-9.91,9.91-19.79,19.69-29.65,29.71,8.88,7.19,18.62,11.32,29.79,12.49Z"/>
  <path class="cls-1" d="m662.77,418.88h-17.45c-.02-3.31-.05-6.47-.06-9.63,0-3.2.02-6.39.02-9.59,0-3.12-.1-6.24,0-9.35.1-3.15-.51-6.36.55-9.68,1.62,0,3.13,0,4.64,0,3.28,0,6.55-.02,9.83,0,2.06.01,2.55.41,2.73,2.44.12,1.35.05,2.72.05,4.07,0,2.8,0,5.59,0,8.39,0,1.16-.21,2.34,1.07,3.19.62.41.54,1.4-.22,1.82-.91.5-.85,1.27-.85,2.05-.01,4.08,0,8.15-.01,12.23,0,.91.06,1.68,1,2.24.49.29.72,1.01,1.15,1.66,4.8,0,9.67.06,14.54-.06.78-.02,1.54-.8,2.47-1.31.75,1.55,2.32,1.41,3.93,1.39,3.76-.06,7.51-.03,11.27,0,1.11,0,2.22.13,3.26.2.62,1.81.76,14.96.2,17.91-.78.09-1.62.28-2.47.28-11.35,0-22.7,0-34.05-.02-.4,0-.79-.06-1.3-.09-.62-1.95-.22-3.95-.29-5.9-.07-2-.02-4-.02-5.99v-6.26Z"/>
  <path class="cls-1" d="m681.36,491.95v-17.87c6.01-.64,11.93-.01,18.12-.41.28-5.85-.03-11.66.18-17.38,2.12-.98,15.53-1.28,19.52-.49.46,1.7.6,14.42.14,17.88-1.17.1-2.41.3-3.66.31-3.76.04-7.51.02-11.27.02-.86,0-1.73,0-2.82,0-.14,1.4-.34,2.57-.36,3.74-.04,4.16,0,8.31-.03,12.47-.01,1.7-.23,2.09-1.88,2.11-5.67.07-11.34-.01-17.01-.05-.22,0-.45-.14-.94-.32Z"/>
  <path class="cls-1" d="m662.28,363.54h-16.3c-.86-1.94-1.15-14.86-.43-19.66h16.89c.94,2.31.9,16.88-.16,19.66Z"/>
  <path class="cls-1" d="m774.44,603.99v17.91c-1.76.52-14.72.67-17.91.23-.56-1.65-.68-15.41-.12-18.14h18.04Z"/>
  <path class="cls-1" d="m292.49,640.56v54.86c-1.04.12-2.04.35-3.04.35-16.54.02-33.08.02-49.62.01-.48,0-.97,0-1.43-.08-1.85-.32-2.23-.76-2.24-2.71-.01-16.62-.01-33.24,0-49.86,0-2.16.29-2.42,2.48-2.56.56-.04,1.12-.01,1.68-.01,16.06,0,32.12,0,48.18,0h3.99Z"/>
  <path class="cls-1" d="m792.98,139.97v-54.59h54.48c.55,1.74.7,51.4.18,54.52-1.79.46-51.98.56-54.66.07Z"/>
  <path class="cls-1" d="m292.39,140.25c-18.06,0-35.95,0-53.83-.02-.69,0-1.37-.32-2.26-.54-.05-1-.14-1.93-.14-2.86,0-16.06,0-32.12,0-48.19,0-3.22.15-3.39,3.36-3.39,14.54-.01,29.09,0,43.63,0,3.02,0,6.05,0,9.24,0v55Z"/>
</svg>